<?xml version="1.0" encoding="UTF-8"?>
<svg width="60px" height="60px" viewBox="0 0 60 60" version="1.1" xmlns="http://www.w3.org/2000/svg" xmlns:xlink="http://www.w3.org/1999/xlink">
    <title>全部光照</title>
    <defs>
        <radialGradient cx="50%" cy="-2.55611126e-12%" fx="50%" fy="-2.55611126e-12%" r="124.401449%" gradientTransform="translate(0.500000,-0.000000),scale(0.550000,1.000000),rotate(90.000000),translate(-0.500000,0.000000)" id="radialGradient-1">
            <stop stop-color="#FFAA14" offset="0%"></stop>
            <stop stop-color="#FFD400" offset="100%"></stop>
        </radialGradient>
        <filter x="-60.0%" y="-109.1%" width="220.0%" height="318.2%" filterUnits="objectBoundingBox" id="filter-2">
            <feGaussianBlur stdDeviation="4" in="SourceGraphic"></feGaussianBlur>
        </filter>
        <radialGradient cx="50%" cy="-2.4412012e-12%" fx="50%" fy="-2.4412012e-12%" r="131.217135%" gradientTransform="translate(0.500000,-0.000000),scale(0.558672,1.000000),rotate(90.000000),translate(-0.500000,0.000000)" id="radialGradient-3">
            <stop stop-color="#FF7714" offset="0%"></stop>
            <stop stop-color="#FFD400" offset="100%"></stop>
        </radialGradient>
        <linearGradient x1="50%" y1="0%" x2="50%" y2="100%" id="linearGradient-4">
            <stop stop-color="#928100" stop-opacity="0" offset="0%"></stop>
            <stop stop-color="#594A00" offset="100%"></stop>
        </linearGradient>
        <radialGradient cx="50%" cy="-26.951921%" fx="50%" fy="-26.951921%" r="126.951921%" gradientTransform="translate(0.500000,-0.269519),scale(0.398457,1.000000),rotate(90.000000),translate(-0.500000,0.269519)" id="radialGradient-5">
            <stop stop-color="#FFCF00" offset="0%"></stop>
            <stop stop-color="#FFD400" stop-opacity="0" offset="100%"></stop>
        </radialGradient>
    </defs>
    <g id="页面-1" stroke="none" stroke-width="1" fill="none" fill-rule="evenodd">
        <g id="光影/环境光设置" transform="translate(-15.000000, -93.000000)">
            <g id="右侧栏备份" transform="translate(0.000000, 43.000000)">
                <g id="编组-3" transform="translate(10.000000, 45.000000)">
                    <g id="全部光照" transform="translate(5.000000, 5.000000)">
                        <rect id="矩形" x="0" y="0" width="60" height="60"></rect>
                        <g id="编组-14" transform="translate(10.000000, 5.000000)">
                            <path d="M40,28.5 C40,18.8350169 31.045695,11 20,11 C8.954305,11 0,18.8350169 0,28.5 C6.84197002,27.6972922 13.5086367,27.2959383 20,27.2959383 C26.4913633,27.2959383 33.15803,27.6972922 40,28.5 Z" id="椭圆形备份-8" fill="#594A00"></path>
                            <ellipse id="椭圆形" fill="#3A3000" cx="20" cy="28.5" rx="20" ry="1.5"></ellipse>
                            <path d="M20,27.2959383 C23.2803515,27.2959383 26.6054701,27.3984319 29.9753559,27.6034189 C29.9920544,27.8324695 30,28.063276 30,28.2959383 C30,33.8187858 25.5228475,38.2959383 20,38.2959383 C14.4771525,38.2959383 10,33.8187858 10,28.2959383 C10,28.063276 10.0079456,27.8324695 10.0235803,27.6037753 C13.3944807,27.3984334 16.7196242,27.2959383 20,27.2959383 Z" id="形状结合" fill="url(#radialGradient-1)" opacity="0.595842634" filter="url(#filter-2)"></path>
                            <path d="M20,27.2959383 C21.9738669,27.2959383 23.9639428,27.3330484 25.9702276,27.4072684 C25.9902443,27.6028888 26,27.8003051 26,28 C26,31.3137085 23.3137085,34 20,34 C16.6862915,34 14,31.3137085 14,28 C14,27.8003051 14.0097557,27.6028888 14.0288165,27.4082016 C16.0358874,27.3330515 18.0260488,27.2959383 20,27.2959383 Z" id="形状结合备份" fill="url(#radialGradient-3)"></path>
                            <rect id="矩形" fill="#594A00" x="17" y="8" width="6" height="11" rx="3"></rect>
                            <rect id="矩形" fill="url(#linearGradient-4)" x="19.5" y="0" width="1" height="8"></rect>
                        </g>
                        <g id="编组-12" transform="translate(9.219694, 38.064871)" stroke="url(#radialGradient-5)" stroke-linecap="round">
                            <path d="M20.7803061,9.68512861 L20.7803061,16.5601286 M12.2789571,7.19375069 L8.53456369,12.9596108 M6.44217517,0.453153894 L0.211309131,3.35865444 M35.118437,0.453153894 L41.349303,3.35865444 M29.2816551,7.19375069 L33.0260484,12.9596108" id="形状结合"></path>
                        </g>
                    </g>
                </g>
            </g>
        </g>
    </g>
</svg>